<svg
  width="64.85742px"
  height="84px"
  viewBox="0 0 64.85742 84"
  version="1.1"
  xmlns:xlink="http://www.w3.org/1999/xlink"
  xmlns="http://www.w3.org/2000/svg"
>
  <g id="Group-4">
    <path
      d="M38.7611 73.5005L25.3225 60.0619L25.3145 70.5809L38.7336 84.0001L64.8572 58.4025L64.7717 47.9609L38.7611 73.5005Z"
      id="Fill-1"
      fill="#FF544F"
      fill-rule="evenodd"
      stroke="none"
    />
    <path
      d="M32.8554 45.4585L32.8554 45.4505C39.2431 45.0761 44.2021 39.8881 44.2021 33.5092C44.2021 30.5267 43.0839 27.6677 41.0526 25.4597L40.5677 24.9329L35.2409 30.2597L35.641 30.7413C36.2896 31.5231 36.647 32.5065 36.647 33.5092C36.647 35.9399 34.6205 37.9164 32.1293 37.9164L21.6103 37.9237L14.136 45.3988L8.25488 39.5178C7.31746 38.5803 7.31746 37.054 8.25488 36.1158L29.6744 14.6962L29.6744 7.62604L32.5633 7.65427C44.5643 7.65427 54.3282 17.4173 54.3282 29.4175C54.3282 35.3599 51.9757 40.9118 47.7017 45.0552L33.4782 59.2779L38.8212 64.6208L52.9866 50.4546C58.724 44.8849 61.8832 37.4138 61.8832 29.4175C61.8832 13.2586 48.7383 0.105682 32.5835 0.0984213L22.1194 0L22.1194 11.5669L2.91271 30.7736C-0.970902 34.6572 -0.970902 40.9763 2.91271 44.8607L10.2346 52.1826C12.3854 54.3334 15.8858 54.3334 18.0365 52.1826L24.7396 45.4787L32.1753 45.4787L32.8554 45.4585Z"
      id="Fill-2"
      fill="#FF544F"
      fill-rule="evenodd"
      stroke="none"
    />
  </g>
</svg>