<svg id="Layer_1" data-name="Layer 1" xmlns="http://www.w3.org/2000/svg" viewBox="0 0 752.54 1006.43">
  <defs>
    <style>
      .cls-1 {
        fill: #ff544f;
        stroke-width: 0px;
      }
    </style>
  </defs>
  <polygon class="cls-1" points="688.16 592.15 347.48 942.17 412.02 1006.43 752.54 656.43 688.16 592.15"/>
  <path class="cls-1" d="M626.44,589.44c23.44-24.13,43.23-51.54,58.81-81.49,15.65-30.08,26.82-62.25,33.2-95.63,6.38-33.38,7.86-67.45,4.42-101.24-3.44-33.81-11.76-66.85-24.73-98.22-12.97-31.37-30.39-60.58-51.77-86.79-21.4-26.24-46.44-49.1-74.42-67.95-27.98-18.85-58.5-33.41-90.7-43.27C449.04,5,415.65,0,382.02,0h-79.83c-6,0-11.85,1.18-17.39,3.5-5.53,2.32-10.47,5.66-14.7,9.94-4.21,4.26-7.5,9.25-9.78,14.81-2.27,5.56-3.43,11.42-3.43,17.42v69.05l-81.29,83.04c-8.59,8.83-12.96,19.58-12.98,31.97v22.39L13.84,402.78c-9.03,8.78-13.68,19.69-13.84,32.47v82.25c.16,12.65,4.76,23.46,13.64,32.11l88.57,89.61c7.32,7.44,16.26,11.86,26.57,13.15,10.3,1.3,20.06-.79,28.98-6.2l93.53-56.8h87.06c83.74-.16,151.86-77.24,154.58-143.46l1.54-45.52-90.3-3.98-2.41,45.3c-.9,26.25-38.93,55.47-64.03,55.47h-99.39c-8.39,0-16.26,2.22-23.38,6.6l-73.44,44.7-50.67-51.07v-43.94l148.99-150.75c8.76-8.9,13.22-19.79,13.27-32.37v-22.08l80.97-82.73c8.91-8.78,13.54-19.66,13.78-32.4v-41.69h34.48c24.72,0,49.25,3.67,72.91,10.91,23.74,7.26,46.22,18,66.83,31.91,20.63,13.92,39.08,30.81,54.84,50.19,15.76,19.39,28.58,40.98,38.1,64.17,9.52,23.2,15.6,47.63,18.06,72.63,2.46,24.98,1.27,50.14-3.54,74.8-4.82,24.64-13.18,48.38-24.85,70.54-11.67,22.15-26.55,42.49-44.25,60.45l-309.38,317.59,64.56,64.12,309.72-318.01,1.11-1.31Z"/>
</svg>