<svg width="30" height="36" viewBox="80.5 25.844" fill="none" xmlns="http://www.w3.org/2000/svg">
  <g id="Group 41">
    <path id="Fill 15" d="M17.3065 0L5.898 11.2022L0.00353813 5.30778L0 9.922L5.88561 15.8076L17.3444 4.5799L17.3065 0Z" fill="#FF544F" fill-rule="evenodd" transform="translate(11.103 21.037)"/>
    <path id="Fill 17" d="M14.4111 19.9392L14.4111 19.9357C17.2129 19.7715 19.3881 17.4958 19.3881 14.6979C19.3881 13.3897 18.8976 12.1357 18.0066 11.1672L17.794 10.9361L15.4575 13.2726L15.633 13.4839C15.9175 13.8268 16.0742 14.2581 16.0742 14.6979C16.0742 15.7641 15.1854 16.631 14.0927 16.631L9.4788 16.6342L6.20037 19.913L3.62079 17.3334C3.20961 16.9223 3.20961 16.2528 3.62079 15.8412L13.0159 6.44612L13.0159 3.34496L14.283 3.35735C19.5469 3.35735 23.8296 7.63966 23.8296 12.9032C23.8296 15.5097 22.7978 17.9449 20.9231 19.7623L14.6843 26.0007L17.0279 28.3442L23.2412 22.1306C25.7578 19.6876 27.1434 16.4106 27.1434 12.9032C27.1434 5.81555 21.3778 0.0463546 14.2919 0.0431699L9.70208 0L9.70208 5.07353L1.27758 13.498C-0.425861 15.2015 -0.425861 17.9732 1.27758 19.677L4.48914 22.8885C5.43251 23.8319 6.96787 23.8319 7.91124 22.8885L10.8514 19.948L14.1128 19.948L14.4111 19.9392Z" fill="#FFFFFF" fill-rule="evenodd"/>
    <path id="Fill 19" d="M1.20734 6.66586L4.88209 6.66586L4.88209 7.79818L0 7.79818L0 0L1.20734 0L1.20734 6.66586Z" fill="#FFFFFF" fill-rule="evenodd" transform="translate(37.78 25.283)"/>
    <path id="Fill 21" d="M2.27526 4.93517L4.35839 4.93517L3.31134 1.95468L2.27526 4.93517ZM1.28165 7.79818L0 7.79818L2.84178 0L3.79187 0L6.63366 7.79818L5.35201 7.79818L4.73206 6.02468L1.9016 6.02468L1.28165 7.79818Z" fill="#FFFFFF" fill-rule="evenodd" transform="translate(46.296 25.283)"/>
  </g>
</svg>
