<?xml version="1.0" encoding="utf-8"?>
<svg width="14.5px" height="14.500061px" viewBox="0 0 14.5 14.500061" version="1.1" xmlns:xlink="http://www.w3.org/1999/xlink" xmlns="http://www.w3.org/2000/svg">
  <defs>
    <path d="M0 0L14.5 0L14.5 14.5L0 14.5L0 0Z" id="path_1" />
    <clipPath id="clip_1">
      <use xlink:href="#path_1" clip-rule="evenodd" fill-rule="evenodd" />
    </clipPath>
  </defs>
  <g id="Group-3">
    <path d="M0 0L14.5 0L14.5 14.5L0 14.5L0 0Z" id="Clip-2" fill="none" fill-rule="evenodd" stroke="none" />
    <g clip-path="url(#clip_1)">
      <path d="M9.62398 13.0178C10.096 12.343 10.4797 11.4682 10.7413 10.4537L12.6004 10.4537C11.9128 11.5973 10.8691 12.5032 9.62398 13.0178L9.62398 13.0178ZM1.89955 10.4537L3.75863 10.4537C4.02003 11.468 4.40363 12.343 4.8756 13.0176C3.6306 12.5031 2.58711 11.5973 1.89955 10.4537L1.89955 10.4537ZM4.8756 1.48228C4.40363 2.15706 4.02003 3.03189 3.75863 4.04641L1.89955 4.04641C2.58711 2.90273 3.6306 1.99698 4.8756 1.48228L4.8756 1.48228ZM12.6004 4.04641L10.7414 4.04641C10.4799 3.03189 10.0963 2.15706 9.6243 1.48228C10.8695 1.99698 11.9128 2.90273 12.6004 4.04641L12.6004 4.04641ZM10.9535 5.05801L13.0896 5.05801C13.3467 5.7404 13.4885 6.47879 13.4885 7.25003C13.4885 8.02112 13.3467 8.75967 13.0896 9.44205L10.9535 9.44205C11.0666 8.75303 11.1276 8.01739 11.1276 7.25003C11.1276 6.48267 11.0666 5.74687 10.9535 5.05801L10.9535 5.05801ZM7.25003 1.0116C8.18346 1.0116 9.16204 2.15593 9.69973 4.04641L4.80017 4.04641C5.33802 2.15593 6.31644 1.0116 7.25003 1.0116L7.25003 1.0116ZM1.0116 7.25003C1.0116 6.47879 1.15323 5.7404 1.41025 5.05801L3.54643 5.05801C3.4333 5.74687 3.37244 6.48267 3.37244 7.25003C3.37244 8.01739 3.4333 8.75303 3.54643 9.44205L1.41025 9.44205C1.15323 8.75967 1.0116 8.02112 1.0116 7.25003L1.0116 7.25003ZM4.56904 9.44205C4.45105 8.77391 4.38404 8.03973 4.38404 7.25003C4.38404 6.46034 4.45105 5.72599 4.56904 5.05801L9.93086 5.05801C10.0489 5.72599 10.116 6.46034 10.116 7.25003C10.116 8.03973 10.0489 8.77391 9.93086 9.44205L4.56904 9.44205ZM7.25003 13.4885C6.31693 13.4885 5.33819 12.344 4.80034 10.4537L9.69973 10.4537C9.16204 12.344 8.18346 13.4885 7.25003 13.4885L7.25003 13.4885ZM7.25003 0C3.25105 0 0 3.25105 0 7.25003C0 11.2497 3.25105 14.5001 7.25003 14.5001C11.2497 14.5001 14.5001 11.249 14.5001 7.25003C14.5001 3.2504 11.249 0 7.25003 0L7.25003 0Z" id="Fill-1" fill="#FFFFFF" fill-rule="evenodd" stroke="none" />
    </g>
  </g>
</svg>