<?xml version="1.0" encoding="utf-8"?>
<svg width="178.5px" height="36.8443px" viewBox="0 0 178.5 36.8443" version="1.1" xmlns:xlink="http://www.w3.org/1999/xlink" xmlns="http://www.w3.org/2000/svg">
  <g id="Group-42">
    <path d="M48.655 15.2767L46.1398 3.72171L42.0206 3.72171L39.6236 15.2785L37.17 3.79035L37.1555 3.72171L33.7769 3.72171L37.9701 20.7409L41.0111 20.7409L43.9954 8.54081L47.0035 20.7409L50.0693 20.7409L54.1138 3.82822L54.139 3.72171L50.9801 3.72171L48.655 15.2767Z" id="Fill-1" fill="#FFFFFF" fill-rule="evenodd" stroke="none" />
    <path d="M64.7183 10.6555L59.3001 10.6555L59.3001 3.72181L55.929 3.72181L55.929 20.741L59.3001 20.741L59.3001 13.6116L64.7183 13.6116L64.7183 20.741L68.0895 20.741L68.0895 3.72181L64.7183 3.72181L64.7183 10.6555Z" id="Fill-2" fill="#FFFFFF" fill-rule="evenodd" stroke="none" />
    <path d="M71.3916 20.7409L74.7627 20.7409L74.7627 3.72171L71.3916 3.72171L71.3916 20.7409Z" id="Fill-3" fill="#FFFFFF" fill-rule="evenodd" stroke="none" />
    <path d="M76.7706 6.67785L81.0674 6.67785L81.0674 20.741L84.463 20.741L84.463 6.67785L88.7601 6.67785L88.7601 3.72178L76.7706 3.72178L76.7706 6.67785Z" id="Fill-4" fill="#FFFFFF" fill-rule="evenodd" stroke="none" />
    <path d="M90.6215 20.7409L101.488 20.7409L101.488 17.7848L93.9926 17.7848L93.9926 13.6362L100.389 13.6362L100.389 10.6802L93.9926 10.6802L93.9926 6.67775L101.488 6.67775L101.488 3.72167L90.6215 3.72167L90.6215 20.7409Z" id="Fill-5" fill="#FFFFFF" fill-rule="evenodd" stroke="none" />
    <path d="M117.649 10.6555L112.231 10.6555L112.231 3.72181L108.86 3.72181L108.86 20.741L112.231 20.741L112.231 13.6116L117.649 13.6116L117.649 20.741L121.02 20.741L121.02 3.72181L117.649 3.72181L117.649 10.6555Z" id="Fill-6" fill="#FFFFFF" fill-rule="evenodd" stroke="none" />
    <g id="Group-41">
      <path d="M127.096 10.449C127.096 8.97839 127.314 7.9646 127.762 7.35173C128.213 6.75903 128.937 6.45825 129.915 6.45825C130.866 6.45825 131.573 6.76646 132.017 7.37367C132.476 8.02652 132.709 9.06154 132.709 10.449L132.709 14.0869C132.709 15.3909 132.471 16.3944 132.018 16.9903C131.573 17.5982 130.866 17.9068 129.915 17.9068C128.937 17.9068 128.213 17.606 127.762 17.0129C127.313 16.4234 127.096 15.4663 127.096 14.0869L127.096 10.449ZM129.915 3.47776C125.791 3.47776 123.7 5.76541 123.7 10.2781L123.7 14.1358C123.7 18.6481 125.758 20.9361 129.817 20.9361C131.71 20.9361 133.25 20.3944 134.394 19.325C135.513 18.2557 136.081 16.5094 136.081 14.1358L136.081 10.2781C136.081 7.8726 135.521 6.11856 134.418 5.06408C133.301 3.99651 131.828 3.47776 129.915 3.47776L129.915 3.47776Z" id="Fill-7" fill="#FFFFFF" fill-rule="evenodd" stroke="none" />
      <path d="M147.366 8.83766C147.366 9.57579 147.176 10.114 146.783 10.4838L146.781 10.4855C146.388 10.8794 145.833 11.0708 145.084 11.0708L142.143 11.0708L142.143 6.67775L145.084 6.67775C145.806 6.67775 146.368 6.87449 146.757 7.26302C147.167 7.67313 147.366 8.18834 147.366 8.83766M149.966 11.6936C150.478 10.9381 150.737 9.97706 150.737 8.83766C150.737 7.2655 150.235 6.00366 149.245 5.08754C148.265 4.18132 146.923 3.72167 145.256 3.72167L138.772 3.72167L138.772 20.7409L142.143 20.7409L142.143 13.9045L144.395 13.9045L147.593 20.7409L151.474 20.7409L147.792 13.3758C148.735 12.9965 149.466 12.431 149.966 11.6936" id="Fill-9" fill="#FFFFFF" fill-rule="evenodd" stroke="none" />
      <path d="M160.583 10.7548L158.801 10.437C158.015 10.2944 157.439 10.0556 157.087 9.72685C156.732 9.396 156.552 8.94873 156.552 8.39814C156.552 7.76651 156.757 7.25378 157.158 6.87587C157.564 6.51777 158.178 6.33589 158.981 6.33589C159.757 6.33589 160.379 6.52273 160.779 6.87587C161.176 7.22654 161.411 7.82242 161.458 8.59877L161.463 8.67981L164.714 8.67981L164.707 8.58674C164.584 6.99229 164.024 5.72479 163.043 4.81822C162.054 3.92864 160.704 3.47748 159.03 3.47748C157.316 3.47748 155.917 3.94492 154.871 4.86564C153.815 5.77504 153.279 7.04572 153.279 8.6423C153.279 11.2923 154.839 12.8981 157.917 13.415L159.504 13.684C160.245 13.7997 160.805 14.0304 161.166 14.3676C161.51 14.7119 161.677 15.1953 161.677 15.8446C161.677 17.2816 160.819 17.9801 159.054 17.9801C158.127 17.9801 157.431 17.7897 156.982 17.4115C156.525 17.0693 156.233 16.4313 156.112 15.5162L156.103 15.4409L152.907 15.4409L152.913 15.5336C153.036 17.249 153.612 18.5831 154.626 19.4981C155.648 20.4199 157.088 20.8873 158.908 20.8873C160.76 20.8873 162.257 20.4287 163.358 19.5243C164.448 18.6078 165 17.2795 165 15.5764C165 12.8942 163.514 11.2718 160.583 10.7548" id="Fill-11" fill="#FFFFFF" fill-rule="evenodd" stroke="none" />
      <path d="M178.5 6.67785L178.5 3.72178L167.634 3.72178L167.634 20.741L178.5 20.741L178.5 17.7845L171.005 17.7845L171.005 13.6363L177.401 13.6363L177.401 10.6799L171.005 10.6799L171.005 6.67785L178.5 6.67785Z" id="Fill-13" fill="#FFFFFF" fill-rule="evenodd" stroke="none" />
      <path d="M28.4098 21.0367L17.0013 32.2389L11.1068 26.3445L11.1033 30.9587L16.9889 36.8443L28.4477 25.6166L28.4098 21.0367Z" id="Fill-15" fill="#FF544F" fill-rule="evenodd" stroke="none" />
      <path d="M14.4111 19.9392L14.4111 19.9357C17.2129 19.7715 19.3881 17.4958 19.3881 14.6979C19.3881 13.3897 18.8976 12.1357 18.0066 11.1672L17.794 10.9361L15.4575 13.2726L15.633 13.4839C15.9175 13.8268 16.0742 14.2581 16.0742 14.6979C16.0742 15.7641 15.1854 16.631 14.0927 16.631L9.4788 16.6342L6.20037 19.913L3.62079 17.3334C3.20961 16.9223 3.20961 16.2528 3.62079 15.8412L13.0159 6.44612L13.0159 3.34496L14.283 3.35735C19.5469 3.35735 23.8296 7.63966 23.8296 12.9032C23.8296 15.5097 22.7978 17.9449 20.9231 19.7623L14.6843 26.0007L17.0279 28.3442L23.2412 22.1306C25.7578 19.6876 27.1434 16.4106 27.1434 12.9032C27.1434 5.81555 21.3778 0.0463546 14.2919 0.0431699L9.70208 0L9.70208 5.07353L1.27758 13.498C-0.425861 15.2015 -0.425861 17.9732 1.27758 19.677L4.48914 22.8885C5.43251 23.8319 6.96787 23.8319 7.91124 22.8885L10.8514 19.948L14.1128 19.948L14.4111 19.9392Z" id="Fill-17" fill="#FFFFFF" fill-rule="evenodd" stroke="none" />
      <path d="M38.9877 31.9489L42.6624 31.9489L42.6624 33.0812L37.7804 33.0812L37.7804 25.2831L38.9877 25.2831L38.9877 31.9489Z" id="Fill-19" fill="#FFFFFF" fill-rule="evenodd" stroke="none" />
      <path d="M48.571 30.2183L50.6542 30.2183L49.6071 27.2378L48.571 30.2183ZM47.5774 33.0813L46.2958 33.0813L49.1375 25.2832L50.0876 25.2832L52.9294 33.0813L51.6478 33.0813L51.0278 31.3078L48.1974 31.3078L47.5774 33.0813Z" id="Fill-21" fill="#FFFFFF" fill-rule="evenodd" stroke="none" />
      <path d="M61.2949 30.7952C61.2949 30.4105 61.188 30.1437 60.9743 29.9512C60.7394 29.7591 60.4191 29.6629 59.9701 29.6629L58.2822 29.6629L58.2822 31.9597L59.9598 31.9597C60.4081 31.9597 60.7284 31.8635 60.9637 31.6604C61.188 31.4682 61.2949 31.1904 61.2949 30.7952L61.2949 30.7952ZM59.906 28.5411C60.3229 28.5411 60.6325 28.4559 60.8678 28.2743C61.0812 28.1034 61.1771 27.8575 61.1771 27.4835C61.1771 27.1098 61.0812 26.8533 60.8678 26.6824C60.6537 26.4902 60.3441 26.4046 59.917 26.4046L58.2822 26.4046L58.2822 28.5411L59.906 28.5411ZM62.5019 30.8486C62.5019 31.5323 62.2775 32.0984 61.8289 32.4937C61.4014 32.8783 60.7928 33.0814 60.0557 33.0814L57.0752 33.0814L57.0752 25.2829L59.9913 25.2829C60.7284 25.2829 61.3271 25.4754 61.7436 25.849C62.1707 26.2231 62.3844 26.768 62.3844 27.441C62.3844 27.8575 62.2666 28.2421 62.0532 28.5733C61.9145 28.7761 61.7542 28.9364 61.5514 29.0648C61.7967 29.2036 62.0001 29.3851 62.1495 29.6094C62.3844 29.9406 62.5019 30.3681 62.5019 30.8486L62.5019 30.8486Z" id="Fill-23" fill="#FFFFFF" fill-rule="evenodd" stroke="none" />
      <path d="M70.0023 26.3193C69.468 26.3193 69.0837 26.458 68.8272 26.7573C68.56 27.0564 68.4319 27.5479 68.4319 28.2527L68.4319 30.1756C68.4319 30.8486 68.56 31.3079 68.8272 31.5963C69.0943 31.8847 69.468 32.0237 70.0023 32.0237C71.049 32.0237 71.5511 31.4363 71.5511 30.1756L71.5511 28.2527C71.5511 26.9389 71.049 26.3193 70.0023 26.3193M67.2249 30.1331L67.2249 28.2209C67.2249 27.1954 67.4811 26.4155 67.9832 25.924C68.485 25.4431 69.169 25.187 70.0023 25.187C70.8247 25.187 71.5083 25.4431 72.0104 25.924C72.5019 26.4155 72.7585 27.1954 72.7585 28.2209L72.7585 30.1331C72.7585 31.1586 72.5019 31.9381 71.9998 32.4296C71.4977 32.9105 70.814 33.1667 69.9917 33.1667C69.158 33.1667 68.4744 32.9105 67.9726 32.4296C67.4811 31.9381 67.2249 31.1586 67.2249 30.1331" id="Fill-25" fill="#FFFFFF" fill-rule="evenodd" stroke="none" />
      <path d="M81.4868 28.4451C81.7006 28.242 81.8074 27.9642 81.8074 27.5799C81.8074 27.1737 81.7006 26.8963 81.4868 26.7038C81.2625 26.5117 80.9529 26.4154 80.5152 26.4154L78.8376 26.4154L78.8376 28.7441L80.5152 28.7441C80.9423 28.7441 81.2519 28.6479 81.4868 28.4451L81.4868 28.4451ZM78.8376 33.0813L77.6306 33.0813L77.6306 25.2831L80.5789 25.2831C81.3159 25.2831 81.9249 25.4862 82.352 25.8815C82.7904 26.2767 83.0148 26.8535 83.0148 27.569C83.0148 28.1351 82.8541 28.6266 82.5555 29.0113C82.2989 29.3209 81.9461 29.5452 81.5297 29.6949L83.3134 33.0813L81.9355 33.0813L80.2692 29.8446L78.8376 29.8446L78.8376 33.0813Z" id="Fill-27" fill="#FFFFFF" fill-rule="evenodd" stroke="none" />
      <path d="M89.1689 30.2183L91.2521 30.2183L90.205 27.2378L89.1689 30.2183ZM88.1753 33.0813L86.8937 33.0813L89.7355 25.2832L90.6859 25.2832L93.5273 33.0813L92.2457 33.0813L91.6257 31.3078L88.7953 31.3078L88.1753 33.0813Z" id="Fill-29" fill="#FFFFFF" fill-rule="evenodd" stroke="none" />
      <path d="M99.3824 33.0812L98.186 33.0812L98.186 26.4154L96.0817 26.4154L96.0817 25.2831L101.487 25.2831L101.487 26.4154L99.3824 26.4154L99.3824 33.0812Z" id="Fill-31" fill="#FFFFFF" fill-rule="evenodd" stroke="none" />
      <path d="M108.047 26.3193C107.513 26.3193 107.128 26.458 106.872 26.7573C106.605 27.0564 106.477 27.5479 106.477 28.2527L106.477 30.1756C106.477 30.8486 106.605 31.3079 106.872 31.5963C107.139 31.8847 107.513 32.0237 108.047 32.0237C109.094 32.0237 109.596 31.4363 109.596 30.1756L109.596 28.2527C109.596 26.9389 109.094 26.3193 108.047 26.3193M105.27 30.1331L105.27 28.2209C105.27 27.1954 105.526 26.4155 106.028 25.924C106.53 25.4431 107.214 25.187 108.047 25.187C108.869 25.187 109.553 25.4431 110.055 25.924C110.547 26.4155 110.803 27.1954 110.803 28.2209L110.803 30.1331C110.803 31.1586 110.547 31.9381 110.045 32.4296C109.542 32.9105 108.859 33.1667 108.036 33.1667C107.203 33.1667 106.519 32.9105 106.017 32.4296C105.526 31.9381 105.27 31.1586 105.27 30.1331" id="Fill-33" fill="#FFFFFF" fill-rule="evenodd" stroke="none" />
      <path d="M119.532 28.4451C119.745 28.242 119.852 27.9642 119.852 27.5799C119.852 27.1737 119.745 26.8963 119.532 26.7038C119.307 26.5117 118.998 26.4154 118.56 26.4154L116.882 26.4154L116.882 28.7441L118.56 28.7441C118.987 28.7441 119.297 28.6479 119.532 28.4451L119.532 28.4451ZM116.882 33.0813L115.675 33.0813L115.675 25.2831L118.624 25.2831C119.361 25.2831 119.97 25.4862 120.397 25.8815C120.835 26.2767 121.06 26.8535 121.06 27.569C121.06 28.1351 120.899 28.6266 120.6 29.0113C120.344 29.3209 119.991 29.5452 119.574 29.6949L121.358 33.0813L119.98 33.0813L118.314 29.8446L116.882 29.8446L116.882 33.0813Z" id="Fill-35" fill="#FFFFFF" fill-rule="evenodd" stroke="none" />
      <path d="M125.9 33.0811L127.107 33.0811L127.107 25.283L125.9 25.283L125.9 33.0811Z" id="Fill-37" fill="#FFFFFF" fill-rule="evenodd" stroke="none" />
      <path d="M136.583 28.5519L136.583 29.6843L133.421 29.6843L133.421 31.9489L137.117 31.9489L137.117 33.0812L132.213 33.0812L132.213 25.2831L137.117 25.2831L137.117 26.4154L133.421 26.4154L133.421 28.5519L136.583 28.5519Z" id="Fill-39" fill="#FFFFFF" fill-rule="evenodd" stroke="none" />
      <path d="M141.284 30.5709L142.48 30.5709C142.512 31.5645 143.004 32.0344 144.029 32.0344C144.542 32.0344 144.906 31.9382 145.162 31.7244C145.397 31.5323 145.514 31.2651 145.514 30.8699C145.514 30.5174 145.429 30.2719 145.247 30.1116C145.044 29.9301 144.745 29.802 144.318 29.7376L143.485 29.5988C142.844 29.492 142.341 29.2676 141.989 28.9258C141.637 28.5734 141.444 28.0713 141.444 27.4623C141.444 26.7571 141.69 26.1803 142.171 25.785C142.641 25.3898 143.271 25.187 144.029 25.187C144.724 25.187 145.322 25.3792 145.771 25.7426C146.273 26.1484 146.561 26.8105 146.615 27.6654L145.407 27.6654C145.386 26.7252 144.948 26.2871 144.018 26.2871C143.559 26.2871 143.218 26.3834 142.972 26.5971C142.737 26.7999 142.63 27.0564 142.63 27.4089C142.63 27.7185 142.716 27.9322 142.886 28.1031C143.079 28.2744 143.367 28.4025 143.763 28.4665L144.617 28.6162C145.279 28.7337 145.803 28.9686 146.155 29.3211C146.518 29.6735 146.711 30.1969 146.711 30.8274C146.711 31.5535 146.454 32.1413 145.963 32.5471C145.472 32.9424 144.799 33.1455 143.976 33.1455C143.196 33.1455 142.555 32.9424 142.096 32.5471C141.594 32.1091 141.305 31.436 141.284 30.5709" id="Fill-40" fill="#FFFFFF" fill-rule="evenodd" stroke="none" />
    </g>
  </g>
</svg>