<svg width="178.5" height="36.844" viewBox="0 0 178.5 36.844" fill="none" xmlns="http://www.w3.org/2000/svg">
  <g id="Group 42" transform="translate(0 0)">
    <path id="Fill 1" d="M14.878 11.555L12.3629 0L8.24368 0L5.84669 11.5568L3.39309 0.0686471L3.37858 0L0 0L4.19314 17.0192L7.23415 17.0192L10.2185 4.81911L13.2266 17.0192L16.2924 17.0192L20.3369 0.106509L20.362 0L17.2032 0L14.878 11.555Z" fill="#FFFFFF" fill-rule="evenodd" transform="translate(33.777 3.722)" />
    <path id="Fill 2" d="M8.78933 6.93372L3.37115 6.93372L3.37115 0L0 0L0 17.0192L3.37115 17.0192L3.37115 9.8898L8.78933 9.8898L8.78933 17.0192L12.1605 17.0192L12.1605 0L8.78933 0L8.78933 6.93372Z" fill="#FFFFFF" fill-rule="evenodd" transform="translate(55.929 3.722)" />
    <path id="Fill 3" d="M0 17.0192L3.37115 17.0192L3.37115 0L0 0L0 17.0192Z" fill="#FFFFFF" fill-rule="evenodd" transform="translate(71.392 3.722)" />
    <path id="Fill 4" d="M0 2.95608L4.29682 2.95608L4.29682 17.0192L7.69238 17.0192L7.69238 2.95608L11.9896 2.95608L11.9896 0L0 0L0 2.95608Z" fill="#FFFFFF" fill-rule="evenodd" transform="translate(76.771 3.722)" />
    <path id="Fill 5" d="M0 17.0192L10.8664 17.0192L10.8664 14.0631L3.37115 14.0631L3.37115 9.91457L9.76772 9.91457L9.76772 6.95849L3.37115 6.95849L3.37115 2.95608L10.8664 2.95608L10.8664 0L0 0L0 17.0192Z" fill="#FFFFFF" fill-rule="evenodd" transform="translate(90.621 3.722)" />
    <path id="Fill 6" d="M8.78932 6.93372L3.37115 6.93372L3.37115 0L0 0L0 17.0192L3.37115 17.0192L3.37115 9.8898L8.78932 9.8898L8.78932 17.0192L12.1605 17.0192L12.1605 0L8.78932 0L8.78932 6.93372Z" fill="#FFFFFF" fill-rule="evenodd" transform="translate(108.86 3.722)" />
    <g id="Group 41">
      <path id="Fill 7" d="M3.39556 6.97123C3.39556 5.50063 3.61353 4.48684 4.06151 3.87397C4.51232 3.28127 5.23666 2.98049 6.2147 2.98049C7.1655 2.98049 7.87321 3.2887 8.31693 3.89591C8.77622 4.54876 9.00907 5.58378 9.00907 6.97123L9.00907 10.6092C9.00907 11.9131 8.77058 12.9166 8.31763 13.5125C7.87321 14.1205 7.1655 14.429 6.2147 14.429C5.23666 14.429 4.51232 14.1282 4.06151 13.5352C3.61318 12.9457 3.39556 11.9885 3.39556 10.6092L3.39556 6.97123ZM6.2147 0C2.09091 0 0 2.28765 0 6.80032L0 10.658C0 15.1703 2.058 17.4583 6.11703 17.4583C8.01014 17.4583 9.54975 16.9166 10.6934 15.8472C11.8126 14.7779 12.3806 13.0317 12.3806 10.658L12.3806 6.80032C12.3806 4.39484 11.8211 2.6408 10.7178 1.58632C9.6007 0.518747 8.12762 0 6.2147 0L6.2147 0Z" fill="#FFFFFF" fill-rule="evenodd" transform="translate(123.7 3.478)" />
      <path id="Fill 9" d="M8.59399 5.11599C8.59399 5.85412 8.40327 6.39233 8.01085 6.76211L8.00908 6.76388C7.61525 7.15771 7.06041 7.34915 6.31201 7.34915L3.37114 7.34915L3.37114 2.95608L6.31201 2.95608C7.03351 2.95608 7.59613 3.15282 7.98431 3.54135C8.39442 3.95146 8.59399 4.46667 8.59399 5.11599M11.1937 7.97192C11.7058 7.21645 11.9651 6.25539 11.9651 5.11599C11.9651 3.54382 11.463 2.28199 10.4726 1.36587C9.49243 0.459653 8.15062 0 6.48328 0L0 0L0 17.0192L3.37114 17.0192L3.37114 10.1828L5.62234 10.1828L8.82082 17.0192L12.7019 17.0192L9.01968 9.65414C9.96304 9.27481 10.6941 8.70935 11.1937 7.97192" fill="#FFFFFF" fill-rule="evenodd" transform="translate(138.772 3.722)" />
      <path id="Fill 11" d="M7.67645 7.27731L5.89445 6.95956C5.10892 6.81695 4.53214 6.5781 4.18005 6.24938C3.82549 5.91852 3.64574 5.47126 3.64574 4.92066C3.64574 4.28904 3.85027 3.77631 4.25117 3.39839C4.65775 3.04029 5.27098 2.85841 6.07422 2.85841C6.85022 2.85841 7.47229 3.04525 7.87285 3.39839C8.26987 3.74906 8.50482 4.34494 8.55118 5.1213L8.55649 5.20233L11.8073 5.20233L11.8002 5.10926C11.6778 3.51481 11.1177 2.24731 10.1361 1.34074C9.14778 0.451161 7.79747 0 6.12305 0C4.4097 0 3.01022 0.467438 1.96494 1.38816C0.90799 2.29756 0.372604 3.56824 0.372604 5.16482C0.372604 7.81481 1.93274 9.42059 5.01019 9.93757L6.59792 10.2065C7.33818 10.3222 7.89796 10.5529 8.25925 10.8901C8.60355 11.2344 8.77092 11.7178 8.77092 12.3671C8.77092 13.8041 7.91283 14.5026 6.14746 14.5026C5.22073 14.5026 4.5247 14.3122 4.0753 13.934C3.61884 13.5918 3.3262 12.9538 3.20554 12.0387L3.19598 11.9634L0 11.9634L0.00672913 12.0561C0.12915 13.7716 0.705231 15.1056 1.71936 16.0206C2.74129 16.9424 4.18182 17.4099 6.00098 17.4099C7.85374 17.4099 9.35089 16.9513 10.4517 16.0468C11.5412 15.1303 12.0936 13.802 12.0936 12.0989C12.0936 9.4167 10.6074 7.79429 7.67645 7.27731" fill="#FFFFFF" fill-rule="evenodd" transform="translate(152.907 3.477)" />
      <path id="Fill 13" d="M10.8664 2.95608L10.8664 0L0 0L0 17.0192L10.8664 17.0192L10.8664 14.0628L3.37114 14.0628L3.37114 9.91457L9.76773 9.91457L9.76773 6.95814L3.37114 6.95814L3.37114 2.95608L10.8664 2.95608Z" fill="#FFFFFF" fill-rule="evenodd" transform="translate(167.634 3.722)" />
      <path id="Fill 15" d="M17.3065 0L5.898 11.2022L0.00353813 5.30778L0 9.922L5.88561 15.8076L17.3444 4.5799L17.3065 0Z" fill="#FF544F" fill-rule="evenodd" transform="translate(11.103 21.037)" />
      <path id="Fill 17" d="M14.4111 19.9392L14.4111 19.9357C17.2129 19.7715 19.3881 17.4958 19.3881 14.6979C19.3881 13.3897 18.8976 12.1357 18.0066 11.1672L17.794 10.9361L15.4575 13.2726L15.633 13.4839C15.9175 13.8268 16.0742 14.2581 16.0742 14.6979C16.0742 15.7641 15.1854 16.631 14.0927 16.631L9.4788 16.6342L6.20037 19.913L3.62079 17.3334C3.20961 16.9223 3.20961 16.2528 3.62079 15.8412L13.0159 6.44612L13.0159 3.34496L14.283 3.35735C19.5469 3.35735 23.8296 7.63966 23.8296 12.9032C23.8296 15.5097 22.7978 17.9449 20.9231 19.7623L14.6843 26.0007L17.0279 28.3442L23.2412 22.1306C25.7578 19.6876 27.1434 16.4106 27.1434 12.9032C27.1434 5.81555 21.3778 0.0463546 14.2919 0.0431699L9.70208 0L9.70208 5.07353L1.27758 13.498C-0.425861 15.2015 -0.425861 17.9732 1.27758 19.677L4.48914 22.8885C5.43251 23.8319 6.96787 23.8319 7.91124 22.8885L10.8514 19.948L14.1128 19.948L14.4111 19.9392Z" fill="#FFFFFF" fill-rule="evenodd" />
      <path id="Fill 19" d="M1.20734 6.66586L4.88209 6.66586L4.88209 7.79818L0 7.79818L0 0L1.20734 0L1.20734 6.66586Z" fill="#FFFFFF" fill-rule="evenodd" transform="translate(37.78 25.283)" />
      <path id="Fill 21" d="M2.27526 4.93517L4.35839 4.93517L3.31134 1.95468L2.27526 4.93517ZM1.28165 7.79818L0 7.79818L2.84178 0L3.79187 0L6.63366 7.79818L5.35201 7.79818L4.73206 6.02468L1.9016 6.02468L1.28165 7.79818Z" fill="#FFFFFF" fill-rule="evenodd" transform="translate(46.296 25.283)" />
      <path id="Fill 23" d="M4.21968 5.5123C4.21968 5.12766 4.11282 4.86086 3.89909 4.66837C3.66413 4.47622 3.3439 4.37998 2.89486 4.37998L1.20699 4.37998L1.20699 6.67683L2.8846 6.67683C3.33293 6.67683 3.65316 6.58058 3.88848 6.37747C4.11282 6.18533 4.21968 5.90755 4.21968 5.5123L4.21968 5.5123ZM2.83081 3.25827C3.24765 3.25827 3.55727 3.17299 3.79258 2.99146C4.00595 2.82055 4.10185 2.57463 4.10185 2.2006C4.10185 1.82694 4.00595 1.57039 3.79258 1.39948C3.5785 1.20734 3.26888 1.12171 2.84178 1.12171L1.20699 1.12171L1.20699 3.25827L2.83081 3.25827ZM5.42667 5.56573C5.42667 6.24937 5.20233 6.81554 4.75364 7.21079C4.32619 7.59543 3.71757 7.79854 2.98049 7.79854L0 7.79854L0 0L2.91609 0C3.65316 0 4.25188 0.192495 4.66837 0.566162C5.09546 0.940184 5.30919 1.48512 5.30919 2.15814C5.30919 2.57463 5.19136 2.95926 4.97799 3.29047C4.83928 3.49322 4.67898 3.65352 4.47622 3.78197C4.72144 3.92068 4.92491 4.1022 5.07423 4.32654C5.30919 4.65775 5.42667 5.0852 5.42667 5.56573L5.42667 5.56573Z" fill="#FFFFFF" fill-rule="evenodd" transform="translate(57.075 25.283)" />
      <path id="Fill 25" d="M2.77738 1.13233C2.24306 1.13233 1.85878 1.27104 1.60224 1.57039C1.33508 1.8694 1.20699 2.3609 1.20699 3.06577L1.20699 4.9886C1.20699 5.66163 1.33508 6.12093 1.60224 6.40932C1.8694 6.69771 2.24306 6.83677 2.77738 6.83677C3.82407 6.83677 4.32619 6.24938 4.32619 4.9886L4.32619 3.06577C4.32619 1.75192 3.82407 1.13233 2.77738 1.13233M0 4.94614L0 3.03392C0 2.00846 0.256187 1.22857 0.758301 0.737074C1.26006 0.256189 1.94406 0 2.77738 0C3.59973 0 4.28338 0.256189 4.78549 0.737074C5.27699 1.22857 5.53353 2.00846 5.53353 3.03392L5.53353 4.94614C5.53353 5.9716 5.27699 6.75114 4.77487 7.24264C4.27276 7.72352 3.58912 7.97971 2.76677 7.97971C1.93309 7.97971 1.24945 7.72352 0.747688 7.24264C0.256187 6.75114 0 5.9716 0 4.94614" fill="#FFFFFF" fill-rule="evenodd" transform="translate(67.225 25.187)" />
      <path id="Fill 27" d="M3.85628 3.16202C4.07 2.95891 4.17686 2.68114 4.17686 2.29685C4.17686 1.89063 4.07 1.61321 3.85628 1.42072C3.63194 1.22857 3.32231 1.13233 2.8846 1.13233L1.20699 1.13233L1.20699 3.46102L2.8846 3.46102C3.3117 3.46102 3.62132 3.36478 3.85628 3.16202L3.85628 3.16202ZM1.20699 7.79819L0 7.79819L0 0L2.9483 0C3.68536 0 4.29434 0.203112 4.72144 0.598364C5.15987 0.993616 5.38421 1.57039 5.38421 2.28588C5.38421 2.85205 5.22356 3.34355 4.92491 3.72818C4.66837 4.0378 4.31557 4.26214 3.89909 4.41182L5.68286 7.79819L4.30496 7.79819L2.63867 4.5615L1.20699 4.5615L1.20699 7.79819Z" fill="#FFFFFF" fill-rule="evenodd" transform="translate(77.631 25.283)" />
      <path id="Fill 29" d="M2.27527 4.93517L4.35839 4.93517L3.31135 1.95468L2.27527 4.93517ZM1.28165 7.79818L0 7.79818L2.84178 0L3.79223 0L6.63366 7.79818L5.35201 7.79818L4.73206 6.02468L1.9016 6.02468L1.28165 7.79818Z" fill="#FFFFFF" fill-rule="evenodd" transform="translate(86.894 25.283)" />
      <path id="Fill 31" d="M3.30073 7.79818L2.10435 7.79818L2.10435 1.13233L0 1.13233L0 0L5.40544 0L5.40544 1.13233L3.30073 1.13233L3.30073 7.79818Z" fill="#FFFFFF" fill-rule="evenodd" transform="translate(96.082 25.283)" />
      <path id="Fill 33" d="M2.77738 1.13233C2.24306 1.13233 1.85878 1.27104 1.60224 1.57039C1.33508 1.8694 1.20699 2.3609 1.20699 3.06577L1.20699 4.9886C1.20699 5.66163 1.33508 6.12093 1.60224 6.40932C1.8694 6.69771 2.24306 6.83677 2.77738 6.83677C3.82407 6.83677 4.32619 6.24938 4.32619 4.9886L4.32619 3.06577C4.32619 1.75192 3.82407 1.13233 2.77738 1.13233M0 4.94614L0 3.03392C0 2.00846 0.256187 1.22857 0.758301 0.737074C1.26006 0.256189 1.94406 0 2.77738 0C3.59973 0 4.28338 0.256189 4.78549 0.737074C5.27699 1.22857 5.53353 2.00846 5.53353 3.03392L5.53353 4.94614C5.53353 5.9716 5.27699 6.75114 4.77487 7.24264C4.27276 7.72352 3.58912 7.97971 2.76677 7.97971C1.93309 7.97971 1.24945 7.72352 0.747688 7.24264C0.256187 6.75114 0 5.9716 0 4.94614" fill="#FFFFFF" fill-rule="evenodd" transform="translate(105.27 25.187)" />
      <path id="Fill 35" d="M3.85628 3.16202C4.07 2.95891 4.17686 2.68114 4.17686 2.29685C4.17686 1.89063 4.07 1.61321 3.85628 1.42072C3.63194 1.22857 3.32231 1.13233 2.8846 1.13233L1.20699 1.13233L1.20699 3.46102L2.8846 3.46102C3.3117 3.46102 3.62132 3.36478 3.85628 3.16202L3.85628 3.16202ZM1.20699 7.79819L0 7.79819L0 0L2.9483 0C3.68536 0 4.29434 0.203112 4.72144 0.598364C5.15987 0.993616 5.38421 1.57039 5.38421 2.28588C5.38421 2.85205 5.22356 3.34355 4.92491 3.72818C4.66837 4.0378 4.31557 4.26214 3.89909 4.41182L5.68286 7.79819L4.30496 7.79819L2.63867 4.5615L1.20699 4.5615L1.20699 7.79819Z" fill="#FFFFFF" fill-rule="evenodd" transform="translate(115.675 25.283)" />
      <path id="Fill 37" d="M0 7.79819L1.20734 7.79819L1.20734 0L0 0L0 7.79819Z" fill="#FFFFFF" fill-rule="evenodd" transform="translate(125.9 25.283)" />
      <path id="Fill 39" d="M4.36935 3.26888L4.36935 4.40121L1.20734 4.40121L1.20734 6.66586L4.90367 6.66586L4.90367 7.79818L0 7.79818L0 0L4.90367 0L4.90367 1.13233L1.20734 1.13233L1.20734 3.26888L4.36935 3.26888Z" fill="#FFFFFF" fill-rule="evenodd" transform="translate(132.213 25.283)" />
      <path id="Fill 40" d="M0 5.38385L1.19637 5.38385C1.22858 6.37747 1.72008 6.84739 2.74553 6.84739C3.25827 6.84739 3.62167 6.75114 3.87785 6.53741C4.11282 6.34527 4.2303 6.07811 4.2303 5.68286C4.2303 5.33042 4.14502 5.08485 3.96349 4.92455C3.76038 4.74303 3.46103 4.61493 3.03392 4.55053L2.20096 4.41182C1.55978 4.30496 1.05766 4.08062 0.705231 3.7388C0.352783 3.38636 0.160645 2.88424 0.160645 2.27527C0.160645 1.57004 0.406219 0.993261 0.8871 0.598009C1.35667 0.202757 1.98723 0 2.74553 0C3.43979 0 4.03816 0.192141 4.48685 0.555548C4.98895 0.961414 5.27734 1.62347 5.33078 2.47838L4.12343 2.47838C4.1022 1.53819 3.66414 1.10012 2.73457 1.10012C2.27527 1.10012 1.93379 1.19637 1.68787 1.4101C1.45291 1.61286 1.34641 1.8694 1.34641 2.22184C1.34641 2.53146 1.43169 2.74518 1.60223 2.91609C1.79509 3.08736 2.08313 3.21545 2.47873 3.2795L3.33328 3.42918C3.99535 3.54666 4.51904 3.78161 4.87148 4.13405C5.23453 4.48649 5.42702 5.00983 5.42702 5.6404C5.42702 6.3665 5.17049 6.95425 4.67899 7.36012C4.18784 7.75537 3.51482 7.95848 2.69211 7.95848C1.91222 7.95848 1.27139 7.75537 0.812088 7.36012C0.309967 6.92205 0.021225 6.24902 0 5.38385" fill="#FFFFFF" fill-rule="evenodd" transform="translate(141.284 25.187)" />
    </g>
  </g>
</svg>