<svg id="Layer_1" data-name="Layer 1" xmlns="http://www.w3.org/2000/svg" viewBox="0 0 1124.89 222.68">
  <defs>
    <style>
      .cls-1 {
        fill: #fff;
        stroke-width: 0px;
      }
    </style>
  </defs>
  <g>
    <g>
      <polygon class="cls-1" points="295.13 92.78 279.05 18.94 252.73 18.94 237.41 92.79 221.73 19.37 221.64 18.94 200.05 18.94 226.85 127.7 246.28 127.7 265.35 49.73 284.57 127.7 304.16 127.7 330.01 19.62 330.17 18.94 309.99 18.94 295.13 92.78"/>
      <polygon class="cls-1" points="397.78 63.25 363.15 63.25 363.15 18.94 341.61 18.94 341.61 127.7 363.15 127.7 363.15 82.14 397.78 82.14 397.78 127.7 419.32 127.7 419.32 18.94 397.78 18.94 397.78 63.25"/>
      <rect class="cls-1" x="440.42" y="18.94" width="21.54" height="108.76"/>
      <polygon class="cls-1" points="474.8 37.83 502.26 37.83 502.26 127.7 523.96 127.7 523.96 37.83 551.42 37.83 551.42 18.94 474.8 18.94 474.8 37.83"/>
      <polygon class="cls-1" points="563.31 127.7 632.75 127.7 632.75 108.81 584.85 108.81 584.85 82.3 625.73 82.3 625.73 63.4 584.85 63.4 584.85 37.83 632.75 37.83 632.75 18.94 563.31 18.94 563.31 127.7"/>
      <polygon class="cls-1" points="736.03 63.25 701.4 63.25 701.4 18.94 679.86 18.94 679.86 127.7 701.4 127.7 701.4 82.14 736.03 82.14 736.03 127.7 757.57 127.7 757.57 18.94 736.03 18.94 736.03 63.25"/>
      <path class="cls-1" d="M814.41,17.38c-26.35,0-39.71,14.62-39.71,43.46v24.65c0,28.84,13.15,43.46,39.09,43.46,12.1,0,21.94-3.46,29.25-10.29,7.15-6.84,10.78-17.99,10.78-33.16v-24.65c0-15.37-3.57-26.58-10.62-33.32-7.14-6.82-16.55-10.14-28.78-10.14ZM796.4,61.93c0-9.4,1.39-15.88,4.26-19.79,2.88-3.79,7.51-5.71,13.76-5.71s10.6,1.97,13.44,5.85c2.94,4.17,4.42,10.79,4.42,19.65v23.25c0,8.33-1.52,14.75-4.42,18.55-2.84,3.89-7.36,5.86-13.44,5.86s-10.88-1.92-13.76-5.71c-2.86-3.77-4.26-9.89-4.26-18.7v-23.25Z"/>
      <path class="cls-1" d="M942.55,69.88c3.27-4.83,4.93-10.97,4.93-18.25,0-10.05-3.21-18.11-9.54-23.97-6.26-5.79-14.84-8.73-25.49-8.73h-41.43v108.76h21.54v-43.69h14.39l20.44,43.69h24.8l-23.53-47.07c6.03-2.42,10.7-6.04,13.89-10.75ZM925.93,51.63c0,4.72-1.22,8.16-3.73,10.52h-.01c-2.52,2.53-6.06,3.75-10.84,3.75h-18.79v-28.07h18.79c4.61,0,8.21,1.26,10.69,3.74,2.62,2.62,3.9,5.91,3.9,10.06Z"/>
      <path class="cls-1" d="M1010.39,63.88l-11.39-2.03c-5.02-.91-8.71-2.44-10.95-4.54-2.27-2.11-3.41-4.97-3.41-8.49,0-4.04,1.31-7.31,3.87-9.73,2.6-2.29,6.52-3.45,11.65-3.45s8.93,1.19,11.49,3.45c2.54,2.24,4.04,6.05,4.34,11.01l.03.52h20.78l-.05-.59c-.78-10.19-4.36-18.29-10.64-24.08-6.32-5.68-14.94-8.57-25.64-8.57s-19.89,2.99-26.57,8.87c-6.75,5.81-10.18,13.93-10.18,24.13,0,16.93,9.97,27.2,29.64,30.5l10.15,1.72c4.73.74,8.31,2.21,10.62,4.37,2.2,2.2,3.27,5.29,3.27,9.44,0,9.18-5.49,13.65-16.77,13.65-5.92,0-10.37-1.22-13.24-3.63-2.92-2.19-4.79-6.26-5.56-12.11l-.06-.48h-20.42l.04.59c.78,10.96,4.46,19.49,10.94,25.34,6.53,5.89,15.74,8.88,27.36,8.88s21.41-2.93,28.44-8.71c6.96-5.86,10.49-14.35,10.49-25.23,0-17.14-9.5-27.51-28.23-30.81Z"/>
      <polygon class="cls-1" points="1124.89 37.83 1124.89 18.94 1055.45 18.94 1055.45 127.7 1124.89 127.7 1124.89 108.81 1076.99 108.81 1076.99 82.3 1117.87 82.3 1117.87 63.4 1076.99 63.4 1076.99 37.83 1124.89 37.83"/>
    </g>
    <g>
      <path class="cls-1" d="M233.35,199.32h23.48v7.24h-31.2v-49.83h7.71v42.6Z"/>
      <path class="cls-1" d="M288.24,206.56h-8.19l18.16-49.83h6.07l18.16,49.83h-8.19l-3.96-11.33h-18.09l-3.96,11.33ZM294.59,188.26h13.31l-6.69-19.05-6.62,19.05Z"/>
      <path class="cls-1" d="M383.61,192.29c0,4.37-1.43,7.99-4.3,10.51-2.73,2.46-6.62,3.75-11.33,3.75h-19.05v-49.83h18.64c4.71,0,8.54,1.23,11.2,3.62,2.73,2.39,4.1,5.87,4.1,10.17,0,2.66-.75,5.12-2.12,7.24-.89,1.3-1.91,2.32-3.21,3.14,1.57.89,2.87,2.05,3.82,3.48,1.5,2.12,2.25,4.85,2.25,7.92ZM367.03,177.54c2.66,0,4.64-.55,6.14-1.71,1.37-1.09,1.98-2.66,1.98-5.05s-.61-4.03-1.98-5.12c-1.37-1.23-3.35-1.78-6.08-1.78h-10.45v13.65h10.38ZM375.9,191.95c0-2.46-.68-4.16-2.05-5.39-1.5-1.23-3.55-1.84-6.42-1.84h-10.78v14.68h10.72c2.87,0,4.91-.61,6.42-1.91,1.43-1.23,2.12-3,2.12-5.53Z"/>
      <path class="cls-1" d="M413.8,187.72v-12.22c0-6.55,1.64-11.54,4.85-14.68,3.21-3.07,7.58-4.71,12.9-4.71s9.62,1.64,12.83,4.71c3.14,3.14,4.78,8.12,4.78,14.68v12.22c0,6.55-1.64,11.54-4.85,14.68-3.21,3.07-7.58,4.71-12.83,4.71s-9.7-1.64-12.9-4.71c-3.14-3.14-4.78-8.12-4.78-14.68ZM431.55,163.35c-3.41,0-5.87.89-7.51,2.8-1.71,1.91-2.53,5.05-2.53,9.56v12.29c0,4.3.82,7.24,2.53,9.08,1.71,1.84,4.1,2.73,7.51,2.73,6.69,0,9.9-3.75,9.9-11.81v-12.29c0-8.4-3.21-12.36-9.9-12.36Z"/>
      <path class="cls-1" d="M488.01,206.56h-7.71v-49.83h18.84c4.71,0,8.6,1.3,11.33,3.82,2.8,2.53,4.23,6.21,4.23,10.79,0,3.62-1.03,6.76-2.94,9.22-1.64,1.98-3.89,3.41-6.55,4.37l11.4,21.64h-8.81l-10.65-20.68h-9.15v20.68ZM504.94,176.93c1.37-1.3,2.05-3.07,2.05-5.53,0-2.59-.68-4.37-2.05-5.6-1.43-1.23-3.41-1.84-6.21-1.84h-10.72v14.88h10.72c2.73,0,4.71-.61,6.21-1.91Z"/>
      <path class="cls-1" d="M547.68,206.56h-8.19l18.16-49.83h6.07l18.16,49.83h-8.19l-3.96-11.33h-18.09l-3.96,11.33ZM554.03,188.26h13.31l-6.69-19.05-6.62,19.05Z"/>
      <path class="cls-1" d="M619.3,206.56h-7.65v-42.6h-13.45v-7.24h34.54v7.24h-13.45v42.6Z"/>
      <path class="cls-1" d="M656.92,187.72v-12.22c0-6.55,1.64-11.54,4.85-14.68,3.21-3.07,7.58-4.71,12.9-4.71s9.62,1.64,12.83,4.71c3.14,3.14,4.78,8.12,4.78,14.68v12.22c0,6.55-1.64,11.54-4.85,14.68-3.21,3.07-7.58,4.71-12.83,4.71s-9.7-1.64-12.9-4.71c-3.14-3.14-4.78-8.12-4.78-14.68ZM674.67,163.35c-3.41,0-5.87.89-7.51,2.8-1.71,1.91-2.53,5.05-2.53,9.56v12.29c0,4.3.82,7.24,2.53,9.08,1.71,1.84,4.1,2.73,7.51,2.73,6.69,0,9.9-3.75,9.9-11.81v-12.29c0-8.4-3.21-12.36-9.9-12.36Z"/>
      <path class="cls-1" d="M731.13,206.56h-7.71v-49.83h18.84c4.71,0,8.6,1.3,11.33,3.82,2.8,2.53,4.23,6.21,4.23,10.79,0,3.62-1.03,6.76-2.94,9.22-1.64,1.98-3.89,3.41-6.55,4.37l11.4,21.64h-8.81l-10.65-20.68h-9.15v20.68ZM748.06,176.93c1.37-1.3,2.05-3.07,2.05-5.53,0-2.59-.68-4.37-2.05-5.6-1.43-1.23-3.41-1.84-6.21-1.84h-10.72v14.88h10.72c2.73,0,4.71-.61,6.21-1.91Z"/>
      <path class="cls-1" d="M796.47,206.56h-7.71v-49.83h7.71v49.83Z"/>
      <path class="cls-1" d="M857.02,177.61v7.24h-20.21v14.47h23.62v7.24h-31.34v-49.83h31.34v7.24h-23.62v13.65h20.21Z"/>
      <path class="cls-1" d="M887.06,190.51h7.65c.21,6.35,3.35,9.35,9.9,9.35,3.28,0,5.6-.61,7.24-1.98,1.5-1.23,2.25-2.94,2.25-5.46,0-2.25-.55-3.82-1.71-4.85-1.3-1.16-3.21-1.98-5.94-2.39l-5.32-.89c-4.1-.68-7.3-2.12-9.56-4.3-2.25-2.25-3.48-5.46-3.48-9.35,0-4.51,1.57-8.19,4.64-10.72,3-2.53,7.03-3.82,11.88-3.82,4.44,0,8.26,1.23,11.13,3.55,3.21,2.59,5.05,6.83,5.39,12.29h-7.71c-.14-6.01-2.94-8.81-8.87-8.81-2.94,0-5.12.61-6.69,1.98-1.5,1.3-2.18,2.94-2.18,5.19,0,1.98.54,3.35,1.64,4.44,1.23,1.09,3.07,1.91,5.6,2.32l5.46.96c4.23.75,7.58,2.25,9.83,4.51,2.32,2.25,3.55,5.6,3.55,9.63,0,4.64-1.64,8.4-4.78,10.99-3.14,2.53-7.44,3.82-12.7,3.82-4.98,0-9.08-1.3-12.02-3.82-3.21-2.8-5.05-7.1-5.19-12.63Z"/>
    </g>
  </g>
  <g>
    <polygon class="cls-1" points="152.26 131.01 76.88 208.46 91.16 222.68 166.5 145.24 152.26 131.01"/>
    <path class="cls-1" d="M138.6,130.42c5.19-5.34,9.56-11.4,13.01-18.03,3.46-6.65,5.93-13.77,7.35-21.16,1.41-7.39,1.74-14.92.98-22.4-.76-7.48-2.6-14.79-5.47-21.73-2.87-6.94-6.72-13.4-11.46-19.2-4.74-5.81-10.28-10.86-16.47-15.03-6.19-4.17-12.94-7.39-20.07-9.57C99.35,1.11,91.97,0,84.52,0h-17.66c-1.33,0-2.62.26-3.85.77-1.22.51-2.32,1.25-3.25,2.2-.93.94-1.66,2.05-2.16,3.28-.5,1.23-.76,2.53-.76,3.85v15.28l-17.99,18.37c-1.9,1.95-2.87,4.33-2.87,7.07v4.95L3.06,89.12c-2,1.94-3.03,4.36-3.06,7.18v18.2c.03,2.8,1.05,5.19,3.02,7.1l19.6,19.83c1.62,1.65,3.6,2.62,5.88,2.91,2.28.29,4.44-.18,6.41-1.37l20.69-12.57h19.26c18.53-.04,33.6-17.09,34.2-31.74l.34-10.07-19.98-.88-.53,10.02c-.2,5.81-8.61,12.27-14.17,12.27h-21.99c-1.86,0-3.6.49-5.17,1.46l-16.25,9.89-11.21-11.3v-9.72l32.96-33.35c1.94-1.97,2.93-4.38,2.94-7.16v-4.88l17.92-18.3c1.97-1.94,3-4.35,3.05-7.17v-9.22h7.63c5.47,0,10.9.81,16.13,2.41,5.25,1.61,10.23,3.98,14.79,7.06,4.56,3.08,8.65,6.82,12.13,11.1,3.49,4.29,6.32,9.07,8.43,14.2,2.11,5.13,3.45,10.54,4,16.07.54,5.53.28,11.09-.78,16.55-1.07,5.45-2.92,10.7-5.5,15.61-2.58,4.9-5.87,9.4-9.79,13.37l-68.45,70.27,14.28,14.19,68.53-70.36.25-.29Z"/>
  </g>
</svg>