<?xml version="1.0" encoding="utf-8"?>
<svg width="14.5px" height="14.974182px" viewBox="0 0 14.5 14.974182" version="1.1" xmlns:xlink="http://www.w3.org/1999/xlink" xmlns="http://www.w3.org/2000/svg">
  <defs>
    <path d="M0 0L14.5 0L14.5 14.9742L0 14.9742L0 0Z" id="path_1" />
    <clipPath id="clip_1">
      <use xlink:href="#path_1" clip-rule="evenodd" fill-rule="evenodd" />
    </clipPath>
  </defs>
  <g id="Group-3">
    <path d="M0 0L14.5 0L14.5 14.9742L0 14.9742L0 0Z" id="Clip-2" fill="none" fill-rule="evenodd" stroke="none" />
    <g clip-path="url(#clip_1)">
      <path d="M3.26974 7.48709C3.26974 7.8315 3.54926 8.11102 3.89366 8.11102L8.62675 8.11102L7.81939 8.91713C7.57606 9.1617 7.57606 9.55602 7.81939 9.8006C7.94168 9.92164 8.10141 9.98279 8.26113 9.98279C8.42086 9.98279 8.58058 9.92164 8.70287 9.8006L10.5746 7.92883C10.632 7.87018 10.6745 7.8028 10.7044 7.73167C10.7057 7.72917 10.7082 7.72793 10.7094 7.72543C10.7094 7.72543 10.7094 7.72543 10.7094 7.72418C10.7518 7.62186 10.7556 7.51205 10.7406 7.40473C10.7369 7.37853 10.7331 7.35732 10.7269 7.33236C10.6994 7.22754 10.6558 7.12771 10.5746 7.04535L8.70287 5.17358C8.45829 4.93025 8.06397 4.93025 7.81939 5.17358C7.57606 5.41816 7.57606 5.81248 7.81939 6.05706L8.62675 6.86317L3.89366 6.86317C3.54926 6.86317 3.26974 7.14268 3.26974 7.48709M7.01328 0C3.90864 0 1.17335 1.87052 0.0428012 4.76429C-0.0832315 5.08498 0.0764931 5.44686 0.39719 5.57289C0.715392 5.69768 1.07976 5.53795 1.2058 5.2185C2.14667 2.80641 4.42649 1.24785 7.01328 1.24785C10.4536 1.24785 13.2525 4.04677 13.2525 7.48709C13.2525 10.9274 10.4536 13.7263 7.01328 13.7263C4.42649 13.7263 2.14667 12.1678 1.2058 9.75568C1.07976 9.43623 0.715392 9.27526 0.39719 9.40129C0.0764931 9.52732 -0.0832315 9.8892 0.0428012 10.2099C1.17335 13.1037 3.90864 14.9742 7.01328 14.9742C11.1424 14.9742 14.5004 11.6162 14.5004 7.48709C14.5004 3.35796 11.1424 0 7.01328 0" id="Fill-1" fill="#FFFFFF" fill-rule="evenodd" stroke="none" />
    </g>
  </g>
</svg>