<?xml version="1.0" encoding="utf-8"?>
<svg width="15.066406px" height="15px" viewBox="0 0 15.066406 15" version="1.1" xmlns:xlink="http://www.w3.org/1999/xlink" xmlns="http://www.w3.org/2000/svg">
  <path d="M11.1582 6.23626C11.1582 8.96332 8.96326 11.1583 6.23621 11.1583C3.50916 11.1583 1.31421 8.96332 1.31421 6.23626C1.31421 3.50919 3.50916 1.31424 6.23621 1.31424C8.96326 1.31424 11.1582 3.50919 11.1582 6.23626M14.6169 13.8853L10.8257 10.0941C11.7568 9.02983 12.2225 7.63305 12.2225 6.23626C12.2225 2.91057 9.56189 0.250019 6.23621 0.250019C2.91052 0.250019 0.25 2.91057 0.25 6.23626C0.25 9.56195 2.91052 12.2225 6.23621 12.2225C7.63306 12.2225 9.02979 11.7569 10.094 10.8257L13.8854 14.617C14.0183 14.75 14.1514 14.75 14.2844 14.75C14.4175 14.75 14.5504 14.6835 14.6835 14.617C14.8165 14.484 14.8165 14.3509 14.8165 14.2179C14.8165 14.0849 14.75 13.9519 14.6169 13.8853" id="Fill-1" fill="#FFFFFF" fill-rule="evenodd" stroke="#FFFFFF" stroke-width="0.5" />
</svg>